G04 #@! TF.GenerationSoftware,KiCad,Pcbnew,7.0.8*
G04 #@! TF.CreationDate,2023-11-08T10:16:28+01:00*
G04 #@! TF.ProjectId,MicroKI,4d696372-6f4b-4492-9e6b-696361645f70,rev?*
G04 #@! TF.SameCoordinates,Original*
G04 #@! TF.FileFunction,Soldermask,Top*
G04 #@! TF.FilePolarity,Negative*
%FSLAX46Y46*%
G04 Gerber Fmt 4.6, Leading zero omitted, Abs format (unit mm)*
G04 Created by KiCad (PCBNEW 7.0.8) date 2023-11-08 10:16:28*
%MOMM*%
%LPD*%
G01*
G04 APERTURE LIST*
G04 Aperture macros list*
%AMRoundRect*
0 Rectangle with rounded corners*
0 $1 Rounding radius*
0 $2 $3 $4 $5 $6 $7 $8 $9 X,Y pos of 4 corners*
0 Add a 4 corners polygon primitive as box body*
4,1,4,$2,$3,$4,$5,$6,$7,$8,$9,$2,$3,0*
0 Add four circle primitives for the rounded corners*
1,1,$1+$1,$2,$3*
1,1,$1+$1,$4,$5*
1,1,$1+$1,$6,$7*
1,1,$1+$1,$8,$9*
0 Add four rect primitives between the rounded corners*
20,1,$1+$1,$2,$3,$4,$5,0*
20,1,$1+$1,$4,$5,$6,$7,0*
20,1,$1+$1,$6,$7,$8,$9,0*
20,1,$1+$1,$8,$9,$2,$3,0*%
G04 Aperture macros list end*
%ADD10RoundRect,0.250000X0.550000X-1.250000X0.550000X1.250000X-0.550000X1.250000X-0.550000X-1.250000X0*%
%ADD11RoundRect,0.237500X-0.300000X-0.237500X0.300000X-0.237500X0.300000X0.237500X-0.300000X0.237500X0*%
%ADD12RoundRect,0.225000X-0.225000X-0.375000X0.225000X-0.375000X0.225000X0.375000X-0.225000X0.375000X0*%
%ADD13R,1.350000X0.690000*%
%ADD14C,1.404000*%
%ADD15C,1.304000*%
%ADD16C,0.804000*%
%ADD17RoundRect,0.250000X-0.450000X0.350000X-0.450000X-0.350000X0.450000X-0.350000X0.450000X0.350000X0*%
%ADD18RoundRect,0.250000X-1.250000X-0.550000X1.250000X-0.550000X1.250000X0.550000X-1.250000X0.550000X0*%
%ADD19RoundRect,0.250000X0.350000X0.450000X-0.350000X0.450000X-0.350000X-0.450000X0.350000X-0.450000X0*%
%ADD20RoundRect,0.225000X0.225000X0.375000X-0.225000X0.375000X-0.225000X-0.375000X0.225000X-0.375000X0*%
%ADD21R,0.600000X0.900000*%
%ADD22RoundRect,0.250000X0.475000X-0.337500X0.475000X0.337500X-0.475000X0.337500X-0.475000X-0.337500X0*%
%ADD23R,0.600000X1.300000*%
%ADD24RoundRect,0.250000X0.337500X0.475000X-0.337500X0.475000X-0.337500X-0.475000X0.337500X-0.475000X0*%
%ADD25RoundRect,0.250000X-0.550000X1.050000X-0.550000X-1.050000X0.550000X-1.050000X0.550000X1.050000X0*%
%ADD26RoundRect,0.250000X-0.337500X-0.475000X0.337500X-0.475000X0.337500X0.475000X-0.337500X0.475000X0*%
%ADD27R,1.200000X1.200000*%
%ADD28RoundRect,0.250000X-0.475000X0.337500X-0.475000X-0.337500X0.475000X-0.337500X0.475000X0.337500X0*%
%ADD29RoundRect,0.250000X0.450000X-0.350000X0.450000X0.350000X-0.450000X0.350000X-0.450000X-0.350000X0*%
%ADD30R,1.550000X1.000000*%
%ADD31C,1.800000*%
%ADD32C,6.750000*%
%ADD33C,3.600000*%
%ADD34C,5.700000*%
%ADD35R,0.350000X0.850000*%
%ADD36R,2.500000X1.680000*%
%ADD37R,1.000000X0.550000*%
G04 APERTURE END LIST*
D10*
X91700000Y-97050000D03*
X91700000Y-92650000D03*
X79725000Y-97050000D03*
X79725000Y-92650000D03*
D11*
X124112500Y-105650000D03*
X125837500Y-105650000D03*
D12*
X106300000Y-62425000D03*
X109600000Y-62425000D03*
D13*
X133895000Y-57515000D03*
X133895000Y-58785000D03*
X133895000Y-60055000D03*
X133895000Y-61325000D03*
X143725000Y-61325000D03*
X143725000Y-60055000D03*
X143725000Y-58785000D03*
X143725000Y-57515000D03*
D14*
X80510000Y-51955000D03*
X80510000Y-54495000D03*
X80510000Y-57035000D03*
X80510000Y-59575000D03*
X80510000Y-62115000D03*
X80510000Y-64655000D03*
X80510000Y-67195000D03*
X80510000Y-69735000D03*
X80510000Y-72275000D03*
X80510000Y-74815000D03*
X80510000Y-77355000D03*
X80510000Y-79895000D03*
X80510000Y-82435000D03*
X80510000Y-84975000D03*
X83050000Y-84975000D03*
X85590000Y-84975000D03*
X88130000Y-84975000D03*
X90670000Y-84975000D03*
X93210000Y-84975000D03*
X95750000Y-84975000D03*
X95750000Y-82435000D03*
X95750000Y-79895000D03*
X95750000Y-77355000D03*
X95750000Y-74815000D03*
X95750000Y-72275000D03*
X95750000Y-69735000D03*
X95750000Y-67195000D03*
X95750000Y-64655000D03*
X95750000Y-62115000D03*
X95750000Y-59575000D03*
X95750000Y-57035000D03*
X95750000Y-54495000D03*
X95750000Y-51955000D03*
X93210000Y-54495000D03*
D15*
X93210000Y-79895000D03*
X93210000Y-77355000D03*
X90670000Y-79895000D03*
X90670000Y-77355000D03*
X88130000Y-79895000D03*
X88130000Y-77355000D03*
X85590000Y-79895000D03*
X85590000Y-77355000D03*
X83050000Y-79895000D03*
X83050000Y-77355000D03*
D16*
X91630000Y-59093400D03*
X90630000Y-59093400D03*
X89630000Y-59093400D03*
X88630000Y-59093400D03*
X87630000Y-59093400D03*
X86630000Y-59093400D03*
X85630000Y-59093400D03*
X84630000Y-59093400D03*
D15*
X89400000Y-53225000D03*
X86860000Y-53225000D03*
D17*
X105000000Y-113700000D03*
X105000000Y-115700000D03*
D18*
X110600000Y-56125000D03*
X115000000Y-56125000D03*
D19*
X108950000Y-66975000D03*
X106950000Y-66975000D03*
X125725000Y-85825000D03*
X123725000Y-85825000D03*
D10*
X97700000Y-97050000D03*
X97700000Y-92650000D03*
D20*
X125925000Y-97500000D03*
X122625000Y-97500000D03*
D17*
X94500000Y-113700000D03*
X94500000Y-115700000D03*
D21*
X78550000Y-103700000D03*
X79500000Y-103700000D03*
X80450000Y-103700000D03*
X80450000Y-100900000D03*
X78550000Y-100900000D03*
D22*
X98830000Y-57055000D03*
X98830000Y-54980000D03*
D17*
X124000000Y-113700000D03*
X124000000Y-115700000D03*
D23*
X144525000Y-113650000D03*
X146425000Y-113650000D03*
X145475000Y-111550000D03*
D24*
X110862500Y-99700000D03*
X108787500Y-99700000D03*
D25*
X114225000Y-100250000D03*
X114225000Y-103850000D03*
D20*
X115825000Y-97400000D03*
X112525000Y-97400000D03*
X130725000Y-97500000D03*
X127425000Y-97500000D03*
D26*
X111762500Y-60175000D03*
X113837500Y-60175000D03*
D24*
X125762500Y-99750000D03*
X123687500Y-99750000D03*
D27*
X96462500Y-100750000D03*
X99262500Y-100750000D03*
D17*
X113500000Y-113750000D03*
X113500000Y-115750000D03*
X96975000Y-113700000D03*
X96975000Y-115700000D03*
D21*
X84750000Y-103700000D03*
X85700000Y-103700000D03*
X86650000Y-103700000D03*
X86650000Y-100900000D03*
X84750000Y-100900000D03*
D19*
X125725000Y-87825000D03*
X123725000Y-87825000D03*
D17*
X107500000Y-113700000D03*
X107500000Y-115700000D03*
D12*
X111150000Y-62425000D03*
X114450000Y-62425000D03*
D17*
X142525000Y-111700000D03*
X142525000Y-113700000D03*
D26*
X111612500Y-78700000D03*
X113687500Y-78700000D03*
D19*
X110825000Y-103850000D03*
X108825000Y-103850000D03*
D20*
X130775000Y-81475000D03*
X127475000Y-81475000D03*
D17*
X120500000Y-113700000D03*
X120500000Y-115700000D03*
D28*
X90412500Y-114487500D03*
X90412500Y-116562500D03*
D17*
X129500000Y-113700000D03*
X129500000Y-115700000D03*
D21*
X90800000Y-103700000D03*
X91750000Y-103700000D03*
X92700000Y-103700000D03*
X92700000Y-100900000D03*
X90800000Y-100900000D03*
D12*
X106250000Y-80900000D03*
X109550000Y-80900000D03*
D19*
X125775000Y-101800000D03*
X123775000Y-101800000D03*
D11*
X109162500Y-105700000D03*
X110887500Y-105700000D03*
D19*
X108900000Y-85600000D03*
X106900000Y-85600000D03*
X125775000Y-103850000D03*
X123775000Y-103850000D03*
D24*
X125762500Y-83775000D03*
X123687500Y-83775000D03*
D12*
X111000000Y-80900000D03*
X114300000Y-80900000D03*
D25*
X129125000Y-100400000D03*
X129125000Y-104000000D03*
D22*
X84312500Y-117075000D03*
X84312500Y-115000000D03*
D29*
X140450000Y-113700000D03*
X140450000Y-111700000D03*
D30*
X137137500Y-79562500D03*
X142387500Y-79562500D03*
X137137500Y-82762500D03*
X142387500Y-82762500D03*
D26*
X96925000Y-103750000D03*
X99000000Y-103750000D03*
D18*
X133000000Y-113700000D03*
X137400000Y-113700000D03*
D17*
X117000000Y-113700000D03*
X117000000Y-115700000D03*
D30*
X137137500Y-96412500D03*
X142387500Y-96412500D03*
X137137500Y-99612500D03*
X142387500Y-99612500D03*
D20*
X110975000Y-97400000D03*
X107675000Y-97400000D03*
D30*
X137137500Y-85162500D03*
X142387500Y-85162500D03*
X137137500Y-88362500D03*
X142387500Y-88362500D03*
D17*
X126500000Y-113700000D03*
X126500000Y-115700000D03*
D19*
X113800000Y-64625000D03*
X111800000Y-64625000D03*
D29*
X130400000Y-63325000D03*
X130400000Y-61325000D03*
D31*
X84000000Y-123500000D03*
X87500000Y-123500000D03*
X91000000Y-123500000D03*
X94500000Y-123500000D03*
X97000000Y-123500000D03*
X100000000Y-123500000D03*
X102500000Y-123500000D03*
X105000000Y-123500000D03*
X107500000Y-123500000D03*
X84000000Y-126700000D03*
X87500000Y-126700000D03*
X91000000Y-126700000D03*
X94500000Y-126700000D03*
X97000000Y-126700000D03*
X100000000Y-126700000D03*
X102500000Y-126700000D03*
X105000000Y-126700000D03*
X107500000Y-126700000D03*
X84000000Y-129700000D03*
X87500000Y-129700000D03*
X91000000Y-129700000D03*
X102500000Y-129700000D03*
X105000000Y-129700000D03*
X107500000Y-129700000D03*
X113500000Y-123500000D03*
X117000000Y-123500000D03*
X120500000Y-123500000D03*
X124000000Y-123500000D03*
X126500000Y-123500000D03*
X129500000Y-123500000D03*
X132000000Y-123500000D03*
X134500000Y-123500000D03*
X137000000Y-123500000D03*
X113500000Y-126700000D03*
X117000000Y-126700000D03*
X120500000Y-126700000D03*
X124000000Y-126700000D03*
X126500000Y-126700000D03*
X129500000Y-126700000D03*
X132000000Y-126700000D03*
X134500000Y-126700000D03*
X137000000Y-126700000D03*
X113500000Y-129700000D03*
X117000000Y-129700000D03*
X120500000Y-129700000D03*
X132000000Y-129700000D03*
X134500000Y-129700000D03*
X137000000Y-129700000D03*
D32*
X77700000Y-135900000D03*
X143300000Y-135900000D03*
D19*
X113650000Y-83100000D03*
X111650000Y-83100000D03*
D20*
X125925000Y-81475000D03*
X122625000Y-81475000D03*
D30*
X137137500Y-102012500D03*
X142387500Y-102012500D03*
X137137500Y-105212500D03*
X142387500Y-105212500D03*
X137137500Y-73962500D03*
X142387500Y-73962500D03*
X137137500Y-77162500D03*
X142387500Y-77162500D03*
D10*
X85700000Y-97050000D03*
X85700000Y-92650000D03*
D25*
X129125000Y-84325000D03*
X129125000Y-87925000D03*
D18*
X110450000Y-74750000D03*
X114850000Y-74750000D03*
D17*
X127950000Y-61350000D03*
X127950000Y-63350000D03*
D11*
X124050000Y-89575000D03*
X125775000Y-89575000D03*
D19*
X110825000Y-101800000D03*
X108825000Y-101800000D03*
D33*
X122175000Y-61250000D03*
D34*
X122175000Y-61250000D03*
D17*
X100000000Y-113700000D03*
X100000000Y-115700000D03*
D35*
X88312500Y-114375000D03*
X87662500Y-114375000D03*
X87012500Y-114375000D03*
X86362500Y-114375000D03*
X86362500Y-117275000D03*
X87012500Y-117275000D03*
X87662500Y-117275000D03*
X88312500Y-117275000D03*
D36*
X87337500Y-115825000D03*
D27*
X111350000Y-66975000D03*
X114150000Y-66975000D03*
X111250000Y-85600000D03*
X114050000Y-85600000D03*
D17*
X102500000Y-113700000D03*
X102500000Y-115700000D03*
D37*
X86012500Y-120225000D03*
X86012500Y-118925000D03*
X84112500Y-119575000D03*
D24*
X130025000Y-56575000D03*
X127950000Y-56575000D03*
D30*
X137137500Y-90812500D03*
X142387500Y-90812500D03*
X137137500Y-94012500D03*
X142387500Y-94012500D03*
M02*
