%TF.GenerationSoftware,KiCad,Pcbnew,7.0.8*%
%TF.CreationDate,2023-11-08T10:16:31+01:00*%
%TF.ProjectId,MicroKI,4d696372-6f4b-4492-9e6b-696361645f70,rev?*%
%TF.SameCoordinates,Original*%
%TF.FileFunction,Drillmap*%
%TF.FilePolarity,Positive*%
%FSLAX45Y45*%
G04 Gerber Fmt 4.5, Leading zero omitted, Abs format (unit mm)*
G04 Created by KiCad (PCBNEW 7.0.8) date 2023-11-08 10:16:31*
%MOMM*%
%LPD*%
G01*
G04 APERTURE LIST*
%ADD10C,0.100000*%
%ADD11C,0.200000*%
G04 APERTURE END LIST*
D10*
X7322500Y-5067500D02*
X14775000Y-5067500D01*
X14775000Y-13992500D01*
X7322500Y-13992500D01*
X7322500Y-5067500D01*
D11*
X7578277Y-14308984D02*
X7578277Y-14108984D01*
X7578277Y-14108984D02*
X7625896Y-14108984D01*
X7625896Y-14108984D02*
X7654467Y-14118508D01*
X7654467Y-14118508D02*
X7673515Y-14137555D01*
X7673515Y-14137555D02*
X7683039Y-14156603D01*
X7683039Y-14156603D02*
X7692562Y-14194698D01*
X7692562Y-14194698D02*
X7692562Y-14223269D01*
X7692562Y-14223269D02*
X7683039Y-14261365D01*
X7683039Y-14261365D02*
X7673515Y-14280412D01*
X7673515Y-14280412D02*
X7654467Y-14299460D01*
X7654467Y-14299460D02*
X7625896Y-14308984D01*
X7625896Y-14308984D02*
X7578277Y-14308984D01*
X7778277Y-14308984D02*
X7778277Y-14175650D01*
X7778277Y-14213746D02*
X7787801Y-14194698D01*
X7787801Y-14194698D02*
X7797324Y-14185174D01*
X7797324Y-14185174D02*
X7816372Y-14175650D01*
X7816372Y-14175650D02*
X7835420Y-14175650D01*
X7902086Y-14308984D02*
X7902086Y-14175650D01*
X7902086Y-14108984D02*
X7892562Y-14118508D01*
X7892562Y-14118508D02*
X7902086Y-14128031D01*
X7902086Y-14128031D02*
X7911610Y-14118508D01*
X7911610Y-14118508D02*
X7902086Y-14108984D01*
X7902086Y-14108984D02*
X7902086Y-14128031D01*
X8025896Y-14308984D02*
X8006848Y-14299460D01*
X8006848Y-14299460D02*
X7997324Y-14280412D01*
X7997324Y-14280412D02*
X7997324Y-14108984D01*
X8130658Y-14308984D02*
X8111610Y-14299460D01*
X8111610Y-14299460D02*
X8102086Y-14280412D01*
X8102086Y-14280412D02*
X8102086Y-14108984D01*
X8359229Y-14308984D02*
X8359229Y-14108984D01*
X8359229Y-14108984D02*
X8425896Y-14251841D01*
X8425896Y-14251841D02*
X8492563Y-14108984D01*
X8492563Y-14108984D02*
X8492563Y-14308984D01*
X8673515Y-14308984D02*
X8673515Y-14204222D01*
X8673515Y-14204222D02*
X8663991Y-14185174D01*
X8663991Y-14185174D02*
X8644944Y-14175650D01*
X8644944Y-14175650D02*
X8606848Y-14175650D01*
X8606848Y-14175650D02*
X8587801Y-14185174D01*
X8673515Y-14299460D02*
X8654467Y-14308984D01*
X8654467Y-14308984D02*
X8606848Y-14308984D01*
X8606848Y-14308984D02*
X8587801Y-14299460D01*
X8587801Y-14299460D02*
X8578277Y-14280412D01*
X8578277Y-14280412D02*
X8578277Y-14261365D01*
X8578277Y-14261365D02*
X8587801Y-14242317D01*
X8587801Y-14242317D02*
X8606848Y-14232793D01*
X8606848Y-14232793D02*
X8654467Y-14232793D01*
X8654467Y-14232793D02*
X8673515Y-14223269D01*
X8768753Y-14175650D02*
X8768753Y-14375650D01*
X8768753Y-14185174D02*
X8787801Y-14175650D01*
X8787801Y-14175650D02*
X8825896Y-14175650D01*
X8825896Y-14175650D02*
X8844944Y-14185174D01*
X8844944Y-14185174D02*
X8854467Y-14194698D01*
X8854467Y-14194698D02*
X8863991Y-14213746D01*
X8863991Y-14213746D02*
X8863991Y-14270888D01*
X8863991Y-14270888D02*
X8854467Y-14289936D01*
X8854467Y-14289936D02*
X8844944Y-14299460D01*
X8844944Y-14299460D02*
X8825896Y-14308984D01*
X8825896Y-14308984D02*
X8787801Y-14308984D01*
X8787801Y-14308984D02*
X8768753Y-14299460D01*
X8949705Y-14289936D02*
X8959229Y-14299460D01*
X8959229Y-14299460D02*
X8949705Y-14308984D01*
X8949705Y-14308984D02*
X8940182Y-14299460D01*
X8940182Y-14299460D02*
X8949705Y-14289936D01*
X8949705Y-14289936D02*
X8949705Y-14308984D01*
X8949705Y-14185174D02*
X8959229Y-14194698D01*
X8959229Y-14194698D02*
X8949705Y-14204222D01*
X8949705Y-14204222D02*
X8940182Y-14194698D01*
X8940182Y-14194698D02*
X8949705Y-14185174D01*
X8949705Y-14185174D02*
X8949705Y-14204222D01*
M02*
