M48
; DRILL file {KiCad 7.0.8} date Wed Nov  8 10:16:30 2023
; FORMAT={-:-/ absolute / metric / decimal}
; #@! TF.CreationDate,2023-11-08T10:16:30+01:00
; #@! TF.GenerationSoftware,Kicad,Pcbnew,7.0.8
; #@! TF.FileFunction,Plated,1,2,PTH
FMAT,2
METRIC
; #@! TA.AperFunction,Plated,PTH,ViaDrill
T1C0.200
; #@! TA.AperFunction,Plated,PTH,ViaDrill
T2C0.300
; #@! TA.AperFunction,Plated,PTH,ViaDrill
T3C0.400
; #@! TA.AperFunction,Plated,PTH,ComponentDrill
T4C0.500
; #@! TA.AperFunction,Plated,PTH,ComponentDrill
T5C1.000
; #@! TA.AperFunction,Plated,PTH,ComponentDrill
T6C1.100
; #@! TA.AperFunction,Plated,PTH,ComponentDrill
T7C1.200
; #@! TA.AperFunction,Plated,PTH,ComponentDrill
T8C3.200
; #@! TA.AperFunction,Plated,PTH,ComponentDrill
T9C4.500
%
G90
G05
T1
X77.85Y-109.275
X87.0Y-119.2
X88.325Y-120.5
X88.5Y-113.275
X97.775Y-78.525
X103.025Y-81.125
X104.05Y-90.25
X104.075Y-92.0
X107.7Y-90.975
X109.175Y-109.8
X109.2Y-107.575
X109.4Y-76.825
X111.2Y-72.275
X111.275Y-116.975
X111.275Y-123.1
X111.775Y-115.725
X112.25Y-89.475
X112.35Y-90.75
X112.35Y-91.9
X112.475Y-87.975
X112.5Y-76.825
X113.825Y-72.2
X115.425Y-115.7
X118.05Y-89.5
X118.1Y-87.95
X118.85Y-115.65
X120.025Y-56.9
X122.475Y-115.675
X123.125Y-107.675
X123.15Y-91.45
X124.075Y-92.125
X124.3Y-93.525
X126.5Y-117.075
X128.0Y-115.725
X134.2Y-77.175
X135.4Y-88.375
X135.45Y-82.75
X135.575Y-94.025
X135.925Y-99.7
X140.45Y-69.475
X140.45Y-107.9
X142.375Y-106.575
T2
X73.975Y-51.3
X75.3Y-108.55
X75.65Y-51.275
X77.175Y-51.275
X77.225Y-91.175
X77.85Y-95.05
X79.325Y-113.3
X79.625Y-118.575
X79.75Y-105.9
X79.95Y-124.8
X80.25Y-88.45
X82.0Y-139.0
X82.4Y-98.7
X82.55Y-117.125
X83.0Y-100.9
X83.525Y-112.675
X83.675Y-138.975
X85.2Y-138.975
X85.625Y-89.025
X85.9Y-105.9
X86.6Y-63.575
X86.6Y-64.475
X86.6Y-65.4
X88.05Y-89.05
X88.2Y-108.95
X88.275Y-63.55
X88.275Y-64.45
X88.275Y-65.375
X89.3Y-100.875
X89.8Y-63.55
X89.8Y-64.45
X89.8Y-65.375
X90.1Y-119.125
X90.325Y-111.65
X90.35Y-108.925
X90.65Y-89.1
X91.95Y-105.9
X93.975Y-111.7
X94.5Y-117.25
X95.35Y-129.825
X95.675Y-118.75
X97.0Y-117.225
X97.025Y-129.8
X98.425Y-117.85
X98.55Y-129.8
X98.75Y-83.475
X100.0Y-117.225
X101.475Y-93.025
X102.15Y-93.025
X102.5Y-117.2
X102.825Y-93.05
X103.3Y-86.075
X105.0Y-117.15
X105.3Y-88.825
X106.4Y-100.025
X106.4Y-100.725
X106.4Y-101.4
X106.95Y-68.35
X107.5Y-117.2
X109.95Y-94.65
X111.225Y-127.325
X111.225Y-128.85
X111.25Y-130.525
X111.75Y-110.425
X112.0Y-94.625
X112.2Y-95.8
X112.475Y-93.25
X113.55Y-52.0
X114.5Y-106.675
X115.2Y-106.675
X115.9Y-106.675
X115.925Y-78.8
X116.05Y-82.85
X120.25Y-72.75
X120.5Y-107.325
X120.5Y-110.25
X124.525Y-67.125
X124.525Y-69.275
X124.6Y-81.0
X124.6Y-109.825
X124.8Y-128.675
X126.475Y-128.65
X127.65Y-58.8
X128.0Y-128.65
X130.025Y-109.1
X131.05Y-67.5
X131.05Y-70.4
X131.075Y-85.025
X135.6Y-139.025
X137.275Y-139.0
X138.8Y-139.0
X139.05Y-109.0
X140.975Y-124.975
X143.75Y-51.475
X145.425Y-51.45
X145.475Y-109.85
X146.475Y-97.625
X146.525Y-68.45
X146.6Y-82.225
X146.95Y-51.45
T3
X116.743Y-59.193
X124.425Y-96.75
X126.95Y-69.925
T4
X84.63Y-59.093
X85.63Y-59.093
X86.63Y-59.093
X87.63Y-59.093
X88.63Y-59.093
X89.63Y-59.093
X90.63Y-59.093
X91.63Y-59.093
T5
X83.05Y-77.355
X83.05Y-79.895
X85.59Y-77.355
X85.59Y-79.895
X86.86Y-53.225
X88.13Y-77.355
X88.13Y-79.895
X89.4Y-53.225
X90.67Y-77.355
X90.67Y-79.895
X93.21Y-77.355
X93.21Y-79.895
T6
X80.51Y-51.955
X80.51Y-54.495
X80.51Y-57.035
X80.51Y-59.575
X80.51Y-62.115
X80.51Y-64.655
X80.51Y-67.195
X80.51Y-69.735
X80.51Y-72.275
X80.51Y-74.815
X80.51Y-77.355
X80.51Y-79.895
X80.51Y-82.435
X80.51Y-84.975
X83.05Y-84.975
X85.59Y-84.975
X88.13Y-84.975
X90.67Y-84.975
X93.21Y-54.495
X93.21Y-84.975
X95.75Y-51.955
X95.75Y-54.495
X95.75Y-57.035
X95.75Y-59.575
X95.75Y-62.115
X95.75Y-64.655
X95.75Y-67.195
X95.75Y-69.735
X95.75Y-72.275
X95.75Y-74.815
X95.75Y-77.355
X95.75Y-79.895
X95.75Y-82.435
X95.75Y-84.975
T7
X84.0Y-123.5
X84.0Y-126.7
X84.0Y-129.7
X87.5Y-123.5
X87.5Y-126.7
X87.5Y-129.7
X91.0Y-123.5
X91.0Y-126.7
X91.0Y-129.7
X94.5Y-123.5
X94.5Y-126.7
X97.0Y-123.5
X97.0Y-126.7
X100.0Y-123.5
X100.0Y-126.7
X102.5Y-123.5
X102.5Y-126.7
X102.5Y-129.7
X105.0Y-123.5
X105.0Y-126.7
X105.0Y-129.7
X107.5Y-123.5
X107.5Y-126.7
X107.5Y-129.7
X113.5Y-123.5
X113.5Y-126.7
X113.5Y-129.7
X117.0Y-123.5
X117.0Y-126.7
X117.0Y-129.7
X120.5Y-123.5
X120.5Y-126.7
X120.5Y-129.7
X124.0Y-123.5
X124.0Y-126.7
X126.5Y-123.5
X126.5Y-126.7
X129.5Y-123.5
X129.5Y-126.7
X132.0Y-123.5
X132.0Y-126.7
X132.0Y-129.7
X134.5Y-123.5
X134.5Y-126.7
X134.5Y-129.7
X137.0Y-123.5
X137.0Y-126.7
X137.0Y-129.7
T8
X122.175Y-61.25
T9
X77.7Y-135.9
X143.3Y-135.9
T0
M30
